<svg id="Layer_1" data-name="Layer 1" xmlns="http://www.w3.org/2000/svg" viewBox="0 0 934.04 361.55"><defs><style>.cls-1{fill:#0c2d75;}.cls-2{fill:#38fc9e;}</style></defs><title>Sherpa-Logo-MultiArtboard 2</title><path class="cls-1" d="M156.26,180.63A89.71,89.71,0,0,0,137.48,174l-22-5.44q-7.09-1.64-10.63-4.6a10,10,0,0,1-3.55-8.15,10.24,10.24,0,0,1,5.2-9.45q5.19-3.06,15.59-3.07T139.26,148Q146,152.77,146,161.5l24.79.23a36.28,36.28,0,0,0-6.37-21.37,40.07,40.07,0,0,0-17.24-13.82,60.45,60.45,0,0,0-24.33-4.72q-14.18,0-24.8,4.13a36.15,36.15,0,0,0-16.53,12.16,31.43,31.43,0,0,0-5.91,19.14q0,14.16,7.68,22.55t21.61,11.93l22.2,5.2q9.91,2.35,14.17,5.55a10.66,10.66,0,0,1,4.25,9.09,10.87,10.87,0,0,1-5.9,10.15q-5.91,3.32-18,3.31-12.28,0-18.31-5t-6-15.35H71.59q0,13.47,6.73,22.91A41,41,0,0,0,96.38,241.8a65.15,65.15,0,0,0,25.28,4.73q14.88,0,26.21-4.61a38.44,38.44,0,0,0,17.6-13.58q6.25-9,6.26-21.26,0-10.16-4-16.41A28.69,28.69,0,0,0,156.26,180.63Zm57-106.29H186.61V242.75H213.3V147.33h56v95.42H296V124.65H213.3ZM452.87,124.6l-1.38-.06V242.75h26.69v-95.5h66.46V124.57H452.87ZM807,151.81a60.29,60.29,0,0,0-23.39-22.08,71.11,71.11,0,0,0-65.19,0A60.13,60.13,0,0,0,695,151.81q-8.62,14.17-8.62,32.36a59.5,59.5,0,0,0,8.74,31.89,60.93,60.93,0,0,0,23.5,22.08,67.7,67.7,0,0,0,32.47,7.91A47.13,47.13,0,0,0,767.66,243a60.41,60.41,0,0,0,15.11-8.15q3.15-2.33,6.15-4.89v12.81h26.69V184.17Q815.61,166,807,151.81Zm-23.74,52.68A33.05,33.05,0,0,1,770,218a40.42,40.42,0,0,1-37.91,0A33.27,33.27,0,0,1,719,204.49a42.08,42.08,0,0,1-4.72-20.32q0-11.8,4.6-20.55a33.34,33.34,0,0,1,13-13.58,37.88,37.88,0,0,1,19.25-4.84,37.42,37.42,0,0,1,19,4.84,34.08,34.08,0,0,1,13.11,13.58q4.71,8.74,4.72,20.55A42.2,42.2,0,0,1,783.25,204.49ZM641.89,129.73a67.7,67.7,0,0,0-32.47-7.91,68.41,68.41,0,0,0-32.6,7.91,60,60,0,0,0-23.5,22.08Q544.7,166,544.7,184.17V290h26.69V229.15c1,1.09,2,2.15,3.07,3.21a49.37,49.37,0,0,0,15.47,9.92,50.4,50.4,0,0,0,19.49,3.77,67.7,67.7,0,0,0,32.47-7.91,61,61,0,0,0,23.5-22.08,59.5,59.5,0,0,0,8.74-31.89q0-18.18-8.74-32.36A61.07,61.07,0,0,0,641.89,129.73Zm-.35,74.76A33.27,33.27,0,0,1,628.43,218a40.66,40.66,0,0,1-38,0,33.27,33.27,0,0,1-13.11-13.46,42.08,42.08,0,0,1-4.72-20.32,43.24,43.24,0,0,1,4.72-20.66,33,33,0,0,1,13.11-13.58,38.07,38.07,0,0,1,19-4.73,37.41,37.41,0,0,1,19,4.84,34.08,34.08,0,0,1,13.11,13.58q4.71,8.74,4.72,20.55A42.2,42.2,0,0,1,641.54,204.49ZM405.31,129a63.56,63.56,0,0,0-30.46-7.2,60.14,60.14,0,0,0-53.5,30.82,62.13,62.13,0,0,0-8.15,31.3q0,18.18,8.5,32.35a57.86,57.86,0,0,0,23.62,22,72.58,72.58,0,0,0,33.78,7.79,67.92,67.92,0,0,0,28.34-5.78,61.22,61.22,0,0,0,21.73-16.42L411.69,208a34.69,34.69,0,0,1-13.81,11.1,46.44,46.44,0,0,1-19.25,3.78,41.7,41.7,0,0,1-20-4.73A32.85,32.85,0,0,1,345,204.6a39,39,0,0,1-4.33-13.11h94v-9.91q-.24-18.44-8-31.89A53.09,53.09,0,0,0,405.31,129Zm-63.79,41.69a45.31,45.31,0,0,1,2.27-7.32,28.8,28.8,0,0,1,11.57-13.94q7.92-4.95,20-5,10.62,0,17.83,4.13a26.39,26.39,0,0,1,10.75,11.22,33.72,33.72,0,0,1,3.21,10.87Z"/><path class="cls-2" d="M824.93,143.42c-6.49-18.3-13.34-25.07-31.57-31.56a2.37,2.37,0,0,1,0-4.47c18.23-6.48,25.08-13.25,31.57-31.47a2.38,2.38,0,0,1,4.48,0c6.47,18.22,13.24,25,31.46,31.47a2.37,2.37,0,0,1,0,4.47c-18.22,6.48-25,13.26-31.46,31.56A2.38,2.38,0,0,1,824.93,143.42Z"/></svg>